<svg xmlns="http://www.w3.org/2000/svg" xmlns:xlink="http://www.w3.org/1999/xlink" version="1.1" x="0px" y="0px" viewBox="0 0 100 125" style="enable-background:new 0 0 100 100;" xml:space="preserve"><style type="text/css">
	.st0{display:none;}
	.st1{display:inline;fill:none;stroke:#000000;stroke-width:0.4;stroke-miterlimit:10;}
	.st2{display:inline;fill:none;stroke:#000000;stroke-miterlimit:10;}
</style><path d="M15.6,61.6c-2-5.2-3.1-11.2-3.1-17.8c0-17.9,14.2-31.9,32.4-31.9c3.9,0,7.6,0.6,11.3,1.8L55.7,15  c-3.5-1.2-7.1-1.8-10.8-1.8c-17.4,0-31,13.4-31,30.6c0,6.4,1,12.3,3,17.3L15.6,61.6z"/><path d="M83.1,98.4c-1.9,0-4-0.3-6.1-1.3c-3.5-1.7-6.1-4.9-7.6-9.6c-4.3,0.3-31.9,1.8-47-14.7l1-0.9  c15.9,17.3,46.1,14.2,46.4,14.2l0.6-0.1l0.2,0.5c1.4,4.6,3.7,7.7,7,9.3c4.5,2.1,9.5,0.8,11.6,0.1c-0.8-0.8-1.6-1.6-1.8-2.1  c-0.5-0.9-0.1-2.1,0.3-3.4c0.6-1.9,0.9-3.2-0.3-4c-1.5-1.1-6.5-2.1-8.3-2.4l-1.9-0.3l1.7-0.9c1.7-0.9,6.1-3.6,6.9-5.1  c0.4-0.8,1.1-2.8-1.4-4.5c-1.6-1.1-1.2-3.6-0.7-5.2c-9.6,2.5-12.5,5.4-13.3,7.5c-0.6,1.6,0.1,2.6,0.1,2.7l1,1.5l-1.7-0.4  C65,77.9,63,74,64.4,68.4c0.6-2.5,2.7-5.2,5.1-8.4c3.7-4.8,7.8-10.3,7.8-16.3c0-10.8-6.1-20.9-16-26.4l0.7-1.2  c10.3,5.7,16.7,16.3,16.7,27.6c0,6.4-4.3,12.1-8.1,17.1c-2.3,3.1-4.3,5.7-4.8,7.9c-0.7,3.1-0.7,7,3.2,8.6c-0.1-0.7-0.1-1.5,0.3-2.5  c1.4-3.5,6.5-6.4,15.2-8.5c0.3-0.1,0.6,0,0.8,0.3l0.3,0.3l-0.1,0.5c-0.7,1.9-1,4-0.2,4.6C88,74,88,76.5,87,78.3  c-0.8,1.5-3.9,3.6-5.9,4.7c2.1,0.4,5.6,1.3,7,2.3c2.1,1.4,1.3,3.8,0.8,5.5c-0.3,0.9-0.6,1.9-0.4,2.3c0.2,0.4,1.1,1.3,2.2,2.4  l0.3,0.3l0,0.5c-0.1,0.3-0.2,0.5-0.5,0.6C89.7,97.2,86.7,98.4,83.1,98.4z"/><path d="M55.2,28.7c-0.9,0-1.8-0.2-2.7-0.7c-2.1-1-3.7-3.2-2.6-5.4c1.8-3.6,9.6-14.9,9.9-15.4  c1.8-2.7,4.3-5.8,5.6-5.6l0.2,0l0.2,0.2c0.9,0.9-0.1,4.8-1.1,7.8c-0.2,0.6-4.5,13.7-6.3,17.2C57.8,28.2,56.6,28.7,55.2,28.7z   M64.9,3.2C64.1,3.9,62.3,6.1,61,8c-0.1,0.1-8.1,11.8-9.9,15.3c-0.3,0.6-0.3,1.3,0.1,1.9c0.4,0.6,1.1,1.2,1.9,1.6  c0.8,0.4,1.7,0.6,2.4,0.5c0.8-0.1,1.3-0.5,1.6-1.1c1.7-3.5,6.2-16.9,6.2-17.1l0,0C64.2,7,64.9,4.4,64.9,3.2z"/><ellipse cx="33.9" cy="38.7" rx="3.7" ry="3.6"/><ellipse cx="60.8" cy="38.7" rx="3.7" ry="3.6"/><path d="M48.2,46.4c-2.1,0-3.7-2.3-3.7-2.4c-0.2-0.3-0.1-0.7,0.2-0.9c0.3-0.2,0.7-0.1,0.9,0.2  c0.3,0.5,1.5,1.8,2.7,1.8c0.8,0,1.5-0.6,2.2-1.8c0.2-0.3,0.6-0.4,0.9-0.2c0.3,0.2,0.4,0.6,0.2,0.9C50.6,45.6,49.5,46.4,48.2,46.4  C48.2,46.4,48.2,46.4,48.2,46.4z"/><path d="M17.5,73.5c-2.8,0-5.3-0.3-6.8-0.5c-1-0.2-1.7-1-1.7-2c-0.1-7.8,12.8-13.9,13.3-14.1c0.3-0.2,0.7,0,0.9,0.3  c0.2,0.3,0,0.7-0.3,0.9c-0.1,0.1-12.6,6-12.5,12.9c0,0.3,0.3,0.6,0.6,0.7c2.3,0.4,10.3,1.3,15.1-1c2-0.9,3.2-2,3.4-3.2  c0.2-1.1-0.4-1.9-0.5-1.9c-0.2-0.3-0.2-0.7,0.1-1c0.3-0.2,0.7-0.2,0.9,0.1c0,0.1,1.1,1.3,0.8,3.1c-0.3,1.6-1.7,3-4.2,4.1  C23.9,73.2,20.6,73.5,17.5,73.5z"/><path d="M68,69.7c-1,0-2,0-3.1-0.1c-0.4,0-0.6-0.4-0.6-0.7s0.4-0.6,0.7-0.6c3.8,0.3,7.6-0.1,9.6-0.4  c0.3-0.1,0.6-0.3,0.6-0.7c0-2.4-1.5-5-4.5-7.7c-0.3-0.2-0.3-0.7-0.1-1c0.2-0.3,0.7-0.3,1-0.1c3.3,2.9,5,5.8,5,8.7c0,1-0.7,1.8-1.7,2  C73.3,69.4,70.8,69.7,68,69.7z"/><path d="M57.6,83c-3,0-6.5-0.2-9.2-1.1C41,79.7,34.8,71.7,34.8,64.6c0-7.3,6.2-13.3,13.9-13.3  c4.2,0,8.8,2.9,11.4,7.1c2,3.2,2.4,6.6,1,9.2c-3.1,6.2,4.3,13.8,4.3,13.8l1,1l-1.4,0.2C64.8,82.6,61.6,83,57.6,83z M48.6,52.6  c-6.9,0-12.5,5.4-12.5,12c0,6.5,5.9,14,12.7,16.1c4.6,1.4,11.8,1,14.7,0.7c-2-2.4-6.5-8.7-3.7-14.4c1.1-2.2,0.8-5.1-1-7.9  C56.6,55.2,52.4,52.6,48.6,52.6z"/><g class="st0"><line class="st1" x1="40.4" y1="46.7" x2="51.2" y2="46.7"/><line class="st1" x1="38" y1="49.7" x2="54.2" y2="49.7"/><line class="st1" x1="37" y1="52.7" x2="55.2" y2="52.7"/><line class="st1" x1="37" y1="55.7" x2="55.2" y2="55.7"/><line class="st1" x1="38" y1="58.7" x2="54.2" y2="58.7"/><line class="st1" x1="39" y1="61.7" x2="55.2" y2="61.7"/><line class="st1" x1="42.4" y1="64.7" x2="56.2" y2="64.7"/></g><g class="st0"><path class="st2" d="M48.3,22.4c0,0,1.8-0.4,2.3,1.8c0.6,2.7,2.3,1.8,2.3,1.8"/><path class="st2" d="M50.2,19.4c0,0,1.8-0.4,2.3,1.8c0.4,1.6,1.1,2,1.7,2"/><path class="st2" d="M52.2,16.4c0,0,1.8-0.4,2.3,1.8c0.2,0.9,0.5,1.4,0.9,1.7"/><path class="st2" d="M53.9,13.4c0,0,1.8-0.4,2.3,1.8c0.1,0.5,0.2,0.9,0.4,1.1"/><path class="st2" d="M55.9,10.7c0.6,0.1,1.3,0.5,1.6,1.8c0,0.2,0.1,0.4,0.2,0.5"/></g><g class="st0"><line class="st2" x1="39.8" y1="47.5" x2="47.4" y2="67"/><line class="st2" x1="43" y1="45.6" x2="51.5" y2="67.3"/><line class="st2" x1="46.7" y1="44.9" x2="55.5" y2="67.3"/><line class="st2" x1="51.5" y1="46.9" x2="55" y2="55.8"/><line class="st2" x1="37" y1="50.7" x2="42.5" y2="64.8"/></g>
	<!--<text x="0" y="115" fill="#000000" font-size="5px" font-weight="bold" font-family="'Helvetica Neue', Helvetica, Arial-Unicode, Arial, Sans-serif">Created by Kelly Robinson</text><text x="0" y="120" fill="#000000" font-size="5px" font-weight="bold" font-family="'Helvetica Neue', Helvetica, Arial-Unicode, Arial, Sans-serif">from the Noun Project</text>-->
</svg>